<svg width="35" height="45" viewBox="0 0 35 45" fill="none" xmlns="http://www.w3.org/2000/svg">
<circle cx="17.5" cy="17.5" r="17.5" fill="#56CCF2"/>
<path d="M2.49805 44C3.40039 44 3.95996 43.5342 3.95996 42.79C3.95996 42.2305 3.53809 41.8115 2.96387 41.7676V41.7441C3.41211 41.6768 3.75781 41.29 3.75781 40.8271C3.75781 40.1797 3.25977 39.7725 2.46582 39.7725H0.625977V44H2.49805ZM1.51074 40.4316H2.2373C2.65039 40.4316 2.8877 40.625 2.8877 40.9648C2.8877 41.3223 2.61816 41.5303 2.14648 41.5303H1.51074V40.4316ZM1.51074 43.3408V42.1133H2.25195C2.77344 42.1133 3.05762 42.3242 3.05762 42.7197C3.05762 43.124 2.78223 43.3408 2.27246 43.3408H1.51074ZM7.23242 44H8.17285L6.70215 39.7725H5.66211L4.19434 44H5.10254L5.4248 42.9746H6.91016L7.23242 44ZM6.15723 40.5811H6.17773L6.71973 42.3125H5.61523L6.15723 40.5811ZM9.92773 44V40.502H11.1523V39.7725H7.82129V40.502H9.04297V44H9.92773ZM15.3154 44V39.7725H14.4307V41.4893H12.5264V39.7725H11.6416V44H12.5264V42.2188H14.4307V44H15.3154ZM16.9033 42.4531H17.6123L18.4004 44H19.4023L18.5117 42.3213C18.998 42.1309 19.2793 41.6621 19.2793 41.1201C19.2793 40.2852 18.7227 39.7725 17.75 39.7725H16.0186V44H16.9033V42.4531ZM16.9033 40.4639H17.6562C18.0957 40.4639 18.3711 40.7275 18.3711 41.1377C18.3711 41.5566 18.1104 41.8115 17.665 41.8115H16.9033V40.4639ZM21.7695 39.6992C20.5156 39.6992 19.7305 40.54 19.7305 41.8877C19.7305 43.2324 20.5156 44.0703 21.7695 44.0703C23.0205 44.0703 23.8086 43.2324 23.8086 41.8877C23.8086 40.54 23.0205 39.6992 21.7695 39.6992ZM21.7695 40.4375C22.4609 40.4375 22.9033 41 22.9033 41.8877C22.9033 42.7725 22.4609 43.332 21.7695 43.332C21.0752 43.332 20.6328 42.7725 20.6328 41.8877C20.6328 41 21.0781 40.4375 21.7695 40.4375ZM26.2871 39.6992C25.0332 39.6992 24.248 40.54 24.248 41.8877C24.248 43.2324 25.0332 44.0703 26.2871 44.0703C27.5381 44.0703 28.3262 43.2324 28.3262 41.8877C28.3262 40.54 27.5381 39.6992 26.2871 39.6992ZM26.2871 40.4375C26.9785 40.4375 27.4209 41 27.4209 41.8877C27.4209 42.7725 26.9785 43.332 26.2871 43.332C25.5928 43.332 25.1504 42.7725 25.1504 41.8877C25.1504 41 25.5957 40.4375 26.2871 40.4375ZM33.374 44V39.7725H32.3486L31.1475 42.8076H31.124L29.9229 39.7725H28.8975V44H29.6855V41.1465H29.709L30.8574 44H31.4141L32.5625 41.1465H32.5859V44H33.374Z" fill="#1F4E8E"/>
<g clip-path="url(#clip0)">
<path d="M12.8 8.80005C11.512 8.80005 10.484 9.74085 9.82479 10.9752C9.16559 12.2096 8.79999 13.828 8.79999 15.6V28H21.6V21.1C22.2248 21.872 23.044 22.4 24 22.4C25.288 22.4 26.316 21.4592 26.9752 20.2248C27.6344 18.9904 28 17.372 28 15.6C28 13.828 27.6344 12.2096 26.9752 10.9752C26.316 9.74085 25.2872 8.80005 24 8.80005H12.8ZM12.8 10.4H21.3752C21.2475 10.5849 21.1305 10.777 21.0248 10.9752C20.3656 12.2096 20 13.828 20 15.6C20 15.7376 20.0216 15.8656 20.0248 16H20V26.4H10.4V15.6C10.4 14.0592 10.7504 12.6624 11.2504 11.7248C11.7504 10.7872 12.3216 10.4 12.8 10.4ZM24 10.4C24.4784 10.4 25.0504 10.7872 25.5504 11.7248C26.0504 12.6624 26.4 14.0592 26.4 15.6C26.4 17.1408 26.0496 18.5376 25.5496 19.4752C25.0504 20.4128 24.4784 20.8 24 20.8C23.5216 20.8 22.9496 20.4128 22.4496 19.4752C21.9496 18.5376 21.6 17.1408 21.6 15.6C21.6 14.0592 21.9504 12.6624 22.4504 11.7248C22.9504 10.7872 23.5216 10.4 24 10.4ZM24 13.6C23.56 13.6 23.2 14.4968 23.2 15.6C23.2 16.7032 23.56 17.6 24 17.6C24.44 17.6 24.8 16.7032 24.8 15.6C24.8 14.4968 24.44 13.6 24 13.6ZM12.8 16C12.36 16 12 16.36 12 16.8C12 17.24 12.36 17.6 12.8 17.6C13.24 17.6 13.6 17.24 13.6 16.8C13.6 16.36 13.24 16 12.8 16ZM15.2 16C14.76 16 14.4 16.36 14.4 16.8C14.4 17.24 14.76 17.6 15.2 17.6C15.64 17.6 16 17.24 16 16.8C16 16.36 15.64 16 15.2 16ZM17.6 16C17.16 16 16.8 16.36 16.8 16.8C16.8 17.24 17.16 17.6 17.6 17.6C18.04 17.6 18.4 17.24 18.4 16.8C18.4 16.36 18.04 16 17.6 16Z" fill="white"/>
</g>
<defs>
<clipPath id="clip0">
<rect width="20" height="20" fill="white" transform="translate(8 8)"/>
</clipPath>
</defs>
</svg>
